<?xml version="1.0" encoding="UTF-8"?>
<!DOCTYPE svg PUBLIC "-//W3C//DTD SVG 1.1//EN" "http://www.w3.org/Graphics/SVG/1.1/DTD/svg11.dtd">
<svg version="1.1" xmlns="http://www.w3.org/2000/svg" xmlns:xlink="http://www.w3.org/1999/xlink" x="0" y="0"
  width="1024" height="768" viewBox="0, 0, 1024, 768">
  <defs>
    <radialGradient id="Gradient_1" gradientUnits="userSpaceOnUse" cx="505.043" cy="403.029" r="557.639">
      <stop offset="0" stop-color="#F8F4D6" stop-opacity="0.57" />
      <stop offset="1" stop-color="#EEDB00" stop-opacity="0" />
    </radialGradient>
    <linearGradient id="Gradient_2" gradientUnits="userSpaceOnUse" x1="897.92" y1="523.563" x2="942.901" y2="523.563">
      <stop offset="0" stop-color="#D04B38" />
      <stop offset="1" stop-color="#260D0B" />
    </linearGradient>
    <linearGradient id="Gradient_3" gradientUnits="userSpaceOnUse" x1="904.063" y1="495.355" x2="947.406" y2="495.355">
      <stop offset="0" stop-color="#DE483B" />
      <stop offset="1" stop-color="#4A1416" />
    </linearGradient>
    <linearGradient id="Gradient_4" gradientUnits="userSpaceOnUse" x1="902.18" y1="460.033" x2="935.81" y2="460.033">
      <stop offset="0" stop-color="#D04B38" />
      <stop offset="1" stop-color="#260D0B" />
    </linearGradient>
    <linearGradient id="Gradient_5" gradientUnits="userSpaceOnUse" x1="902.678" y1="456.294" x2="966.655" y2="456.294">
      <stop offset="0" stop-color="#EFDEC9" />
      <stop offset="1" stop-color="#260D0B" />
    </linearGradient>
    <linearGradient id="Gradient_6" gradientUnits="userSpaceOnUse" x1="911.51" y1="445.931" x2="928.458" y2="461.322">
      <stop offset="0" stop-color="#DE483B" />
      <stop offset="1" stop-color="#4A1416" />
    </linearGradient>
    <linearGradient id="Gradient_7" gradientUnits="userSpaceOnUse" x1="914.336" y1="439.822" x2="923.943" y2="448.546">
      <stop offset="0" stop-color="#DE483B" />
      <stop offset="1" stop-color="#4A1416" />
    </linearGradient>
    <linearGradient id="Gradient_8" gradientUnits="userSpaceOnUse" x1="935.009" y1="475.937" x2="923.224" y2="507.364">
      <stop offset="0" stop-color="#D04B38" />
      <stop offset="1" stop-color="#260D0B" />
    </linearGradient>
    <linearGradient id="Gradient_9" gradientUnits="userSpaceOnUse" x1="942.549" y1="488.208" x2="919.676" y2="500.116">
      <stop offset="0" stop-color="#EFDEC9" />
      <stop offset="1" stop-color="#260D0B" />
    </linearGradient>
    <linearGradient id="Gradient_10" gradientUnits="userSpaceOnUse" x1="944.804" y1="492.454" x2="936.228" y2="496.919">
      <stop offset="0" stop-color="#DE483B" />
      <stop offset="1" stop-color="#4A1416" />
    </linearGradient>
    <linearGradient id="Gradient_11" gradientUnits="userSpaceOnUse" x1="615.493" y1="395.757" x2="615.047" y2="421.537">
      <stop offset="0" stop-color="#9C9E9B" />
      <stop offset="1" stop-color="#616563" />
    </linearGradient>
    <linearGradient id="Gradient_12" gradientUnits="userSpaceOnUse" x1="505.284" y1="452.71" x2="511.378" y2="456.614">
      <stop offset="0" stop-color="#D9DAD5" />
      <stop offset="1" stop-color="#5C615E" />
    </linearGradient>
    <linearGradient id="Gradient_13" gradientUnits="userSpaceOnUse" x1="549.431" y1="410.252" x2="552.119" y2="414.598">
      <stop offset="0" stop-color="#D9DAD5" />
      <stop offset="1" stop-color="#5C615E" />
    </linearGradient>
    <linearGradient id="Gradient_14" gradientUnits="userSpaceOnUse" x1="462.878" y1="674.456" x2="482.311" y2="674.456">
      <stop offset="0" stop-color="#D9DAD5" />
      <stop offset="1" stop-color="#5C615E" />
    </linearGradient>
    <linearGradient id="Gradient_15" gradientUnits="userSpaceOnUse" x1="469.165" y1="549.689" x2="481.135" y2="549.689">
      <stop offset="0" stop-color="#D9DAD5" />
      <stop offset="1" stop-color="#5C615E" />
    </linearGradient>
    <linearGradient id="Gradient_16" gradientUnits="userSpaceOnUse" x1="-333.953" y1="399.598" x2="-334.399"
      y2="425.378" gradientTransform="matrix(-1, -0, -0, 1, 0, 0)">
      <stop offset="0" stop-color="#9C9E9B" />
      <stop offset="1" stop-color="#616563" />
    </linearGradient>
    <linearGradient id="Gradient_17" gradientUnits="userSpaceOnUse" x1="-442.784" y1="450.434" x2="-436.818"
      y2="454.096" gradientTransform="matrix(-1, -0, -0, 1, 0, 0)">
      <stop offset="0" stop-color="#D9DAD5" />
      <stop offset="1" stop-color="#5C615E" />
    </linearGradient>
    <linearGradient id="Gradient_18" gradientUnits="userSpaceOnUse" x1="-400.076" y1="410.252" x2="-397.327"
      y2="414.598" gradientTransform="matrix(-1, -0, -0, 1, 0, 0)">
      <stop offset="0" stop-color="#D9DAD5" />
      <stop offset="1" stop-color="#5C615E" />
    </linearGradient>
    <linearGradient id="Gradient_19" gradientUnits="userSpaceOnUse" x1="464.816" y1="674.456" x2="484.249" y2="674.456"
      gradientTransform="matrix(1, -0, 0, 1, 0, 0)">
      <stop offset="0" stop-color="#D9DAD5" />
      <stop offset="1" stop-color="#5C615E" />
    </linearGradient>
    <linearGradient id="Gradient_20" gradientUnits="userSpaceOnUse" x1="469.165" y1="550.258" x2="481.135" y2="550.258"
      gradientTransform="matrix(1, -0, 0, 1, 0, 0)">
      <stop offset="0" stop-color="#D9DAD5" />
      <stop offset="1" stop-color="#5C615E" />
    </linearGradient>
    <linearGradient id="Gradient_21" gradientUnits="userSpaceOnUse" x1="514.045" y1="366.581" x2="524.821" y2="366.581">
      <stop offset="0" stop-color="#D9DAD5" />
      <stop offset="1" stop-color="#5C615E" />
    </linearGradient>
    <linearGradient id="Gradient_22" gradientUnits="userSpaceOnUse" x1="518.074" y1="297.968" x2="523.457" y2="297.968">
      <stop offset="0" stop-color="#D9DAD5" />
      <stop offset="1" stop-color="#5C615E" />
    </linearGradient>
    <linearGradient id="Gradient_23" gradientUnits="userSpaceOnUse" x1="515.027" y1="251.761" x2="527.762" y2="251.761">
      <stop offset="0" stop-color="#D9DAD5" />
      <stop offset="1" stop-color="#5C615E" />
    </linearGradient>
    <linearGradient id="Gradient_24" gradientUnits="userSpaceOnUse" x1="512.709" y1="247.428" x2="533.403" y2="247.428">
      <stop offset="0" stop-color="#D9DAD5" />
      <stop offset="1" stop-color="#5C615E" />
    </linearGradient>
    <radialGradient id="Gradient_25" gradientUnits="userSpaceOnUse" cx="513.619" cy="225.049" r="32.561">
      <stop offset="0" stop-color="#FDE49E" />
      <stop offset="0.005" stop-color="#FDE49E" />
      <stop offset="1" stop-color="#BD8941" />
    </radialGradient>
    <radialGradient id="Gradient_26" gradientUnits="userSpaceOnUse" cx="521.402" cy="234.622" r="20.775"
      gradientTransform="matrix(1, -0, 0, 1, 0, 0)">
      <stop offset="0" stop-color="#F8F4D6" stop-opacity="0.57" />
      <stop offset="1" stop-color="#EEDB00" stop-opacity="0" />
    </radialGradient>
    <clipPath id="Clip_1">
      <path
        d="M454.843,167.589 L587.881,167.589 L587.881,299.84 L454.843,299.84 z M521.361,218.589 C512.79,218.589 505.843,225.361 505.843,233.714 C505.843,242.068 512.79,248.84 521.361,248.84 C529.934,248.84 536.881,242.068 536.881,233.714 C536.881,225.361 529.934,218.589 521.361,218.589 z" />
    </clipPath>
    <filter id="Shadow_2">
      <feGaussianBlur in="SourceAlpha" stdDeviation="25" />
      <feOffset dx="0" dy="0" result="offsetblur" />
      <feFlood flood-color="#FFFBD0" />
      <feComposite in2="offsetblur" operator="in" />
    </filter>
    <clipPath id="Clip_3">
      <path
        d="M521.361,218.589 C529.934,218.589 536.881,225.361 536.881,233.714 C536.881,242.068 529.934,248.84 521.361,248.84 C512.79,248.84 505.843,242.068 505.843,233.714 C505.843,225.361 512.79,218.589 521.361,218.589 z" />
    </clipPath>
    <filter id="Shadow_4">
      <feGaussianBlur in="SourceAlpha" stdDeviation="2.5" />
      <feOffset dx="0" dy="0" result="offsetblur" />
      <feFlood flood-color="#C5C29C" />
      <feComposite in2="offsetblur" operator="in" />
    </filter>
  </defs>
  <g id="nightBG">
    <path d="M-30.667,-27.333 L1038,-27.333 L1038,784.667 L-30.667,784.667 L-30.667,-27.333 z" fill="#47464A" />
  </g>
  <g id="lightLayer">
    <path d="M-30.667,-27.333 L1038,-27.333 L1038,784.667 L-30.667,784.667 L-30.667,-27.333 z"
      fill="url(#Gradient_1)" />
  </g>
  <g id="Layer_1">
    <path
      d="M709.126,455.06 L699.626,447.308 L922.933,317.366 L822.936,258.891 L606.375,387.611 L457.269,379.626 L430.021,391.366 L203.668,261.355 L102.812,319.83 L333.886,454.447 L338.669,540.252 L103.193,677.757 L201.02,735.595 L424.635,605.821 L449.361,599.68 L547.925,601.531 L579.988,597.824 L816.473,735.595 L915.134,677.757 L688.826,545.45 L709.126,455.06"
      fill="#313332" />
    <path d="M287.334,525.329 L326.597,549.463 L326.881,544.265 L291.565,522.983 L287.334,525.329" fill="#5E5B57" />
    <path d="M326.597,549.462 L341.621,541.224 L341.621,536.447 L326.881,544.265 L326.597,549.462" fill="#4E4C48" />
    <path d="M64.213,654.24 L103.472,677.953 L103.756,673.177 L64.314,649.41 L64.213,654.24" fill="#5E5B57" />
    <path d="M201.02,735.595 L240.279,759.304 L240.567,754.536 L201.121,730.765 L201.02,735.595" fill="#5E5B57" />
    <path d="M423.327,605.654 L462.59,629.367 L462.878,624.594 L423.432,600.824 L423.327,605.654" fill="#5E5B57" />
    <path d="M240.279,759.304 L478.432,620.111 L478.432,613.651 L240.668,751.912 L240.279,759.304" fill="#4E4C48" />
    <path d="M301.661,529.072 L326.597,549.463 L256.926,589.811 L230.686,569.171 L301.661,529.072" fill="#6C6864" />
    <path d="M103.472,677.954 L256.926,589.811 L256.926,585.034 L103.756,673.177 L103.472,677.954" fill="#4E4C48" />
    <path
      d="M326.881,544.265 L341.706,536.447 L302.26,512.681 L289.954,520.498 L217.566,561.268 L64.314,649.41 L103.756,673.177 L257.011,585.034 L230.868,569.285 L301.722,529.108 L326.881,544.265"
      fill="#858078" />
    <path d="M423.327,605.654 L448.818,616.123 L379.572,657.268 L357.798,644.151 L423.327,605.654" fill="#6C6864" />
    <path d="M282.288,604.044 L298.972,613.651 L367.586,572.914 L351.846,563.699 L282.288,604.044" fill="#CFCFC8" />
    <path d="M309.74,620.05 L326.31,629.714 L395.094,588.781 L379.572,579.415 L309.74,620.05" fill="#CFCFC8" />
    <path d="M256.927,589.382 L273.716,599.169 L342.168,558.342 L326.597,549.033 L256.927,589.382" fill="#CFCFC8" />
    <path d="M337.733,636.375 L354.385,646.317 L423.327,605.654 L407.546,596.026 L337.733,636.375" fill="#CFCFC8" />
    <path
      d="M439.067,591.572 L423.432,600.824 L448.818,616.123 L379.52,657.236 L353.563,641.597 L201.121,730.765 L240.566,754.536 L393.004,665.363 L465.846,622.007 L478.513,615.338 L439.067,591.572"
      fill="#858078" />
    <path d="M727.13,522.636 L687.53,546.774 L687.242,541.572 L727.024,517.806 L727.13,522.636" fill="#5E5B57" />
    <path d="M688.093,546.774 L673.867,538.76 L673.867,533.988 L688.085,541.572 L688.093,546.774" fill="#5E5B57" />
    <path d="M954.45,654.24 L914.854,677.953 L914.563,673.177 L954.349,649.41 L954.45,654.24" fill="#4E4C48" />
    <path d="M816.473,735.595 L776.788,759.304 L776.59,752.46 L816.372,730.765 L816.473,735.595" fill="#4E4C48" />
    <path d="M590.262,603.259 L550.666,626.972 L550.375,622.199 L590.156,598.429 L590.262,603.259" fill="#5E5B57" />
    <path d="M776.788,759.304 L505.843,600.771 L505.843,595.998 L778.554,738.762 L776.788,759.304" fill="#5E5B57" />
    <path d="M712.677,526.379 L687.53,546.774 L757.796,587.118 L784.259,566.478 L712.677,526.379" fill="#6C6864" />
    <path d="M914.883,677.953 L757.857,587.118 L757.857,582.341 L914.607,673.176 L914.883,677.953" fill="#4E4C48" />
    <path
      d="M688.085,541.572 L673.867,533.987 L712.446,510.213 L727.024,517.806 L797.493,558.571 L954.345,649.41 L914.563,673.177 L757.707,582.341 L784.077,566.588 L712.62,526.411 L688.085,541.572"
      fill="#858078" />
    <path d="M590.262,603.259 L564.552,613.728 L634.389,654.874 L656.349,641.753 L590.262,603.259" fill="#6C6864" />
    <path d="M731.778,602.086 L714.953,611.689 L645.756,570.957 L661.629,561.742 L731.778,602.086" fill="#CFCFC8" />
    <path d="M704.092,618.093 L687.38,627.753 L618.009,586.828 L633.668,577.458 L704.092,618.093" fill="#CFCFC8" />
    <path d="M758.181,586.828 L741.246,596.615 L672.207,555.784 L687.915,546.475 L758.181,586.828" fill="#CFCFC8" />
    <path d="M676.584,633.976 L659.795,643.918 L590.262,603.259 L606.176,593.636 L676.584,633.976" fill="#CFCFC8" />
    <path
      d="M579.373,591.572 L590.156,598.429 L564.552,613.728 L634.445,654.841 L660.625,639.199 L816.372,730.765 L776.59,754.536 L620.843,662.965 L547.378,619.613 L539.591,615.338 L579.373,591.572"
      fill="#858078" />
    <path d="M396.58,326.021 L356.98,350.159 L356.693,344.961 L396.475,321.195 L396.58,326.021" fill="#5E5B57" />
    <path d="M357.543,350.159 L202.372,262.65 L202.372,257.877 L357.535,344.961 L357.543,350.159" fill="#5E5B57" />
    <path d="M342.532,459.481 L302.847,483.198 L302.641,476.346 L342.427,454.655 L342.532,459.481" fill="#5E5B57" />
    <path d="M256.59,408.459 L216.995,432.168 L216.707,427.395 L256.489,403.629 L256.59,408.459" fill="#5E5B57" />
    <path d="M302.847,483.198 L66.395,344.492 L66.395,338.783 L302.54,472.876 L302.847,483.198" fill="#5E5B57" />
    <path d="M382.128,329.764 L356.981,350.159 L427.247,390.504 L453.71,369.868 L382.128,329.764" fill="#6C6864" />
    <path d="M443.38,399.379 L427.307,390.504 L427.307,385.731 L443.108,394.606 L443.38,399.379" fill="#5E5B57" />
    <path
      d="M357.535,344.961 L202.372,257.877 L240.943,234.111 L396.475,321.195 L466.948,361.965 L482.846,370.836 L443.064,394.606 L427.162,385.731 L453.532,369.978 L382.071,329.801 L357.535,344.961"
      fill="#858078" />
    <path d="M256.59,408.459 L230.884,418.928 L300.725,460.07 L322.686,446.952 L256.59,408.459" fill="#6C6864" />
    <path d="M399.164,406.502 L382.338,416.109 L313.141,375.372 L329.015,366.157 L399.164,406.502" fill="#CFCFC8" />
    <path d="M371.478,422.508 L354.77,432.168 L285.398,391.243 L301.053,381.873 L371.478,422.508" fill="#CFCFC8" />
    <path d="M427.247,390.504 L410.312,400.295 L341.277,359.464 L356.981,350.159 L427.247,390.504" fill="#CFCFC8" />
    <path d="M342.892,439.172 L326.099,449.114 L256.57,408.455 L272.484,398.828 L342.892,439.172" fill="#CFCFC8" />
    <path
      d="M105.428,315.462 L256.489,403.629 L230.884,418.928 L300.778,460.041 L325.747,445.122 L342.427,454.655 L303.985,477.625 L287.172,468.165 L213.715,424.809 L66.395,338.783 L105.428,315.462"
      fill="#858078" />
    <path d="M631.404,326.454 L670.664,350.588 L670.951,345.395 L631.502,321.624 L631.404,326.454" fill="#5E5B57" />
    <path d="M670.664,350.588 L825.337,260.186 L825.337,255.409 L670.951,345.395 L670.664,350.588" fill="#4E4C48" />
    <path d="M767.871,406.661 L807.131,430.374 L807.422,425.597 L767.977,401.831 L767.871,406.661" fill="#5E5B57" />
    <path d="M675.872,507.504 L959.787,341.537 L959.787,336.764 L676.26,500.112 L675.872,507.504" fill="#4E4C48" />
    <path d="M645.731,330.198 L670.664,350.588 L600.993,390.937 L574.756,370.301 L645.731,330.198" fill="#6C6864" />
    <path d="M587.184,399.379 L600.993,390.937 L600.993,386.164 L587.472,394.606 L587.184,399.379" fill="#4E4C48" />
    <path
      d="M670.951,345.395 L825.418,255.409 L785.976,231.643 L631.506,321.624 L561.632,362.394 L544.021,372.92 L587.472,394.606 L601.082,386.164 L574.935,370.411 L645.792,330.234 L670.951,345.395"
      fill="#858078" />
    <path d="M767.871,406.661 L793.363,417.13 L724.117,458.276 L702.347,445.154 L767.871,406.661" fill="#6C6864" />
    <path d="M627.173,405.047 L643.857,414.654 L712.471,373.917 L696.726,364.703 L627.173,405.047" fill="#CFCFC8" />
    <path d="M654.62,420.71 L671.194,430.374 L739.978,389.445 L724.457,380.075 L654.62,420.71" fill="#CFCFC8" />
    <path d="M600.993,390.618 L617.786,400.409 L686.234,359.578 L670.664,350.274 L600.993,390.618" fill="#CFCFC8" />
    <path d="M682.614,437.055 L699.269,446.997 L768.211,406.338 L752.43,396.711 L682.614,437.055" fill="#CFCFC8" />
    <path
      d="M920.341,312.998 L767.976,401.831 L793.362,417.13 L724.064,458.243 L698.107,442.601 L682.391,452.191 L721.837,475.961 L807.503,426.402 L817.436,420.399 L959.787,336.764 L920.341,312.998"
      fill="#858078" />
    <path
      d="M443.38,399.379 C443.38,399.379 480.728,423.62 517.153,423.571 C553.578,423.521 587.184,399.379 587.184,399.379 L587.472,394.607 C587.472,394.607 533.586,385.482 515.715,385.666 C500.801,385.821 483.069,375.768 483.069,375.768 L443.109,394.607 L443.38,399.379"
      fill="#4E4C48" />
    <path
      d="M443.064,394.606 C443.064,394.606 481.254,419.717 517.679,419.668 C554.104,419.619 589.112,393.331 589.112,393.331 L544.021,372.92 C544.021,372.92 533.136,380.553 515.266,380.733 C500.36,380.893 482.846,370.836 482.846,370.836 L463.866,372.675 L443.064,394.606"
      fill="#858078" />
    <path
      d="M467.073,592.443 C467.073,592.443 471.483,572.465 507.908,572.514 C544.333,572.563 539.506,615.338 539.506,615.338 L541.656,621.378 C541.656,621.378 527.09,611.391 509.22,611.391 C491.35,611.391 478.432,620.111 478.432,620.111 L478.432,615.338 L467.073,592.443"
      fill="#4E4C48" />
    <path
      d="M439.067,591.572 C439.067,591.572 471.483,567.532 507.908,567.585 C544.333,567.63 579.373,591.572 579.373,591.572 L539.591,615.339 C539.591,615.339 527.09,606.459 509.22,606.459 C491.35,606.459 478.513,615.339 478.513,615.339 L454.095,614.313 L439.067,591.572"
      fill="#858078" />
    <path
      d="M299.729,481.368 C299.729,481.368 321.511,493.676 311.44,505.906 C302.868,516.322 346.549,495.429 346.752,494.55 C346.958,493.676 339.224,476.211 339.224,476.211 C339.224,476.211 329.485,469.096 324.156,468.929 C318.827,468.757 299.729,481.368 299.729,481.368"
      fill="#5E5B57" />
    <path
      d="M341.499,541.412 C341.499,541.412 370.761,523.432 373.065,506.585 C375.369,489.741 372.109,487.134 372.109,487.134 L341.706,536.448 L340.329,537.228 L341.499,541.412"
      fill="#4E4C48" />
    <path
      d="M302.26,512.681 C302.26,512.681 316.296,505.538 316.247,496.111 C316.194,484.841 303.985,477.625 303.985,477.625 L342.427,454.655 C342.427,454.655 374.936,471.09 372.854,495.735 C370.777,520.384 341.706,536.447 341.706,536.447 L302.26,512.681"
      fill="#858078" />
    <path
      d="M673.867,538.76 C673.867,538.76 659.155,529.112 654.264,517.401 C649.38,505.694 650.668,492.405 650.668,492.405 L677.779,480.734 L673.867,533.987 L673.867,538.76"
      fill="#5E5B57" />
    <path
      d="M721.554,480.734 C721.554,480.734 704.793,489.904 705.246,499.143 C705.708,508.391 708.931,511.549 708.931,511.549 L689.534,499.07 L697.475,478.421 C697.475,478.421 703.938,476.268 707.19,475.961 C710.438,475.647 722.934,475.316 722.934,475.316 L721.554,480.734"
      fill="#4E4C48" />
    <path
      d="M713.58,510.867 C713.58,510.867 703.582,504.925 704.959,493.087 C705.939,484.645 722.934,475.316 722.934,475.316 L684.72,450.826 C684.72,450.826 648.683,471.65 650.753,496.295 C652.83,520.936 673.867,533.987 673.867,533.987 L713.58,510.867"
      fill="#858078" />
    <path d="M865.22,699.047 L825.102,675.673 L820.121,678.664 L860.405,702.136 L865.22,699.047" fill="#D0D0CA" />
    <path d="M803.365,663.198 L763.243,639.82 L758.307,642.836 L798.558,666.295 L803.365,663.198" fill="#D0D0CA" />
    <path d="M267.463,348.901 L227.345,325.527 L222.36,328.518 L262.648,351.994 L267.463,348.901" fill="#D0D0CA" />
    <path d="M205.608,313.051 L165.482,289.673 L160.549,292.689 L200.801,316.149 L205.608,313.051" fill="#D0D0CA" />
    <path d="M154.831,695.316 L195.176,671.82 L200.222,674.778 L159.865,698.295 L154.831,695.316" fill="#D0D0CA" />
    <path d="M220.109,657.665 L260.324,634.295 L265.321,637.282 L224.94,660.758 L220.109,657.665" fill="#D0D0CA" />
    <path d="M751.2,349.015 L791.549,325.519 L796.594,328.477 L756.233,351.994 L751.2,349.015" fill="#D0D0CA" />
    <path d="M816.477,311.368 L856.692,287.994 L861.685,290.985 L821.308,314.457 L816.477,311.368" fill="#D0D0CA" />
    <path
      d="M938.329,523.563 C938.329,530.58 929.919,536.362 919.536,536.362 C909.161,536.362 900.75,530.58 900.75,523.563 C900.75,516.543 909.161,510.761 919.536,510.761 C929.919,510.761 938.329,516.543 938.329,523.563 z"
      fill="url(#Gradient_2)" />
    <path
      d="M933.28,461.291 L906.205,460.903 L904.063,518.991 C904.063,524.748 911.534,529.799 920.05,529.799 C928.57,529.799 935.017,525.132 935.017,519.375 L933.28,461.291 z"
      fill="url(#Gradient_3)" />
    <path
      d="M936.551,458.599 C936.811,467.556 928.914,472.946 919.536,472.946 C910.161,472.946 902.674,467.221 902.937,458.599 C903.123,452.257 910.708,447.116 920.082,447.116 C929.461,447.116 936.369,452.257 936.551,458.599 z"
      fill="url(#Gradient_4)" />
    <path
      d="M936.811,456.294 C936.811,462.664 929.165,467.915 919.742,467.915 C910.319,467.915 902.674,462.664 902.674,456.294 C902.674,449.919 910.319,444.668 919.742,444.668 C929.165,444.668 936.811,449.919 936.811,456.294 z"
      fill="url(#Gradient_5)" />
    <path
      d="M934.065,453.956 C934.065,459.301 927.651,463.715 919.742,463.715 C911.833,463.715 905.419,459.301 905.419,453.956 C905.419,448.607 911.627,441.501 919.536,441.501 C927.448,441.501 934.065,448.607 934.065,453.956 z"
      fill="url(#Gradient_6)" />
    <path
      d="M927.214,445.943 C927.214,448.734 923.978,450.99 919.989,450.99 C916.001,450.99 912.765,448.734 912.765,445.943 C912.765,445.011 912.55,442.02 913.182,441.272 C914.442,439.785 917.337,440.897 919.989,440.897 C922.484,440.897 925.501,440.537 926.796,441.877 C927.578,442.686 927.214,444.901 927.214,445.943 z"
      fill="url(#Gradient_7)" />
    <path
      d="M927.213,442.956 C927.213,445.743 923.978,447.999 919.989,447.999 C916,447.999 912.765,445.743 912.765,442.956 C912.765,440.165 916,437.909 919.989,437.909 C923.978,437.909 927.213,440.165 927.213,442.956"
      fill="#CF4238" />
    <path
      d="M923.945,442.956 C923.945,444.48 922.176,445.718 919.989,445.718 C917.807,445.718 916.033,444.48 916.033,442.956 C916.033,441.428 917.807,440.19 919.989,440.19 C922.176,440.19 923.945,441.428 923.945,442.956"
      fill="#671C1D" />
    <path d="M913.874,528.577 L911.757,528.508 L913.506,472.341 L915.624,472.41 L913.874,528.577" fill="#681C1D" />
    <path d="M925.185,528.571 L923.743,472.4 L925.861,472.347 L927.298,528.514 L925.185,528.571" fill="#4A1516" />
    <path
      d="M925.942,503.148 C919.673,500.962 918.029,493.974 920.508,487.366 C922.986,480.759 928.926,476.999 934.826,479.459 C939.159,481.266 940.714,487.967 938.236,494.575 C935.758,501.186 930.376,504.693 925.942,503.148 z"
      fill="url(#Gradient_8)" />
    <path
      d="M927.642,504.432 C923.228,502.748 921.616,495.977 924.106,489.337 C926.597,482.692 932.25,478.696 936.66,480.384 C941.07,482.067 942.685,488.838 940.195,495.479 C937.704,502.119 932.051,506.115 927.642,504.432"
      fill="#511618" />
    <path
      d="M929.809,502.621 C926.108,501.207 924.751,495.527 926.841,489.949 C928.934,484.375 933.676,481.024 937.382,482.438 C941.079,483.848 944.355,490.104 942.269,495.674 C940.176,501.248 933.51,504.035 929.809,502.621 z"
      fill="url(#Gradient_9)" />
    <path
      d="M937.167,499.911 C935.235,499.172 934.527,496.295 935.58,493.488 C936.637,490.672 939.054,488.993 940.982,489.728 C941.625,489.974 943.755,490.615 944.108,491.257 C944.804,492.536 943.27,494.285 942.565,496.152 C941.909,497.909 941.358,500.132 940.091,500.688 C939.325,501.023 937.888,500.185 937.167,499.911 z"
      fill="url(#Gradient_10)" />
    <path
      d="M939.236,500.7 C937.305,499.965 936.596,497.088 937.649,494.276 C938.706,491.465 941.119,489.781 943.051,490.517 C944.982,491.257 945.687,494.133 944.638,496.941 C943.581,499.756 941.164,501.436 939.236,500.7"
      fill="#CF4238" />
    <path
      d="M940.095,498.395 C939.042,497.991 938.653,496.418 939.232,494.881 C939.807,493.341 941.131,492.421 942.188,492.826 C943.245,493.226 943.634,494.799 943.055,496.34 C942.476,497.881 941.152,498.8 940.095,498.395"
      fill="#671C1D" />
    <path
      d="M635.704,384.113 C634.194,382.88 627.424,380.489 626.321,380.111 L628.019,380.715 L626.803,380.273 C625.373,379.787 623.553,380.288 622.594,380.808 L601.735,391.42 C598.163,393.379 594.483,396.915 594.483,400.731 L594.483,489.097 C594.483,490.889 597.515,492.79 599.389,493.605 C601.204,494.513 606.538,496.826 608.177,497.023 C610.169,497.273 611.819,494.238 611.819,494.238 L613.051,484.447 L621.908,479.04 C625.47,477.081 626.616,473.55 626.616,469.739 L626.616,387.933 L636.229,385.459 C636.229,385.459 637.343,385.459 635.704,384.113 z"
      fill="url(#Gradient_11)" />
    <path
      d="M606.389,493.482 L606.389,404.276 C606.389,400.46 608.574,396.924 612.151,394.965 L632.196,383.99 C634.778,382.576 638.055,384.28 638.055,387.034 L638.055,476.186 C638.055,479.997 635.875,483.528 632.314,485.487 L612.247,496.526 C609.666,497.945 606.389,496.241 606.389,493.482"
      fill="#3F4240" />
    <path
      d="M634.231,410.729 C632.078,418.631 625.577,424.219 619.456,423.51 C613.115,422.774 609.157,415.581 610.871,407.087 C612.681,398.155 619.911,391.714 626.707,393.079 C633.267,394.391 636.491,402.442 634.231,410.729"
      fill="#501518" />
    <path
      d="M634.231,443.412 C632.078,451.073 625.577,456.482 619.456,455.795 C613.115,455.087 609.157,448.113 610.871,439.889 C612.681,431.235 619.911,424.989 626.707,426.312 C633.267,427.583 636.491,435.384 634.231,443.412"
      fill="#524325" />
    <path
      d="M634.233,475.766 C632.08,483.423 625.579,488.837 619.457,488.144 C613.117,487.437 609.159,480.468 610.873,472.238 C612.683,463.585 619.913,457.339 626.709,458.661 C633.269,459.937 636.493,467.738 634.233,475.766"
      fill="#1C572F" />
    <path id="redRight"
      d="M632.276,410.302 C630.488,416.871 625.09,421.505 620.002,420.913 C614.748,420.311 611.455,414.333 612.885,407.284 C614.379,399.867 620.382,394.519 626.032,395.649 C631.473,396.742 634.156,403.423 632.276,410.302"
      fill="#D5312A" />
    <path id="yellowRight"
      d="M632.453,442.649 C630.632,449.123 625.138,453.7 619.954,453.116 C614.598,452.517 611.251,446.622 612.703,439.669 C614.229,432.353 620.345,427.073 626.091,428.189 C631.634,429.269 634.365,435.861 632.453,442.649"
      fill="#D5BC3A" />
    <path id="greenRight"
      d="M632.361,475.372 C630.557,481.778 625.11,486.314 619.98,485.735 C614.678,485.141 611.363,479.303 612.798,472.417 C614.314,465.174 620.371,459.946 626.058,461.051 C631.542,462.116 634.252,468.646 632.361,475.372"
      fill="#3FAB47" />
    <path
      d="M470.502,491.087 L471.579,491.466 C470.201,490.412 470.136,488.642 471.42,487.517 L539.193,416.992 C540.481,415.868 542.643,415.808 544.021,416.863 L542.94,416.487 C544.314,417.541 544.383,419.308 543.099,420.436 L475.321,490.957 C474.037,492.085 471.879,492.142 470.502,491.087 z"
      fill="url(#Gradient_12)" />
    <path
      d="M474.734,452.751 L474.734,452.751 C473.99,451.552 474.438,450.023 475.732,449.334 L623.127,371.168 C624.421,370.48 626.073,370.897 626.814,372.096 C627.558,373.297 627.107,374.827 625.813,375.513 L478.421,453.681 C477.127,454.367 475.475,453.953 474.734,452.751 z"
      fill="url(#Gradient_13)" />
    <path
      d="M485.239,650.855 L464.524,650.62 L462.878,691.696 C462.878,695.211 468.597,698.295 475.118,698.295 C481.635,698.295 486.568,695.446 486.568,691.931 L485.239,650.855 z"
      fill="url(#Gradient_14)" />
    <path
      d="M475.097,652.384 L475.097,652.384 C472.374,652.384 469.165,650.481 469.165,648.286 L470.164,450.965 C470.164,448.774 472.374,446.996 475.097,446.996 C477.825,446.996 480.034,448.774 480.034,450.965 L481.137,648.028 C481.137,650.222 478.742,652.384 475.097,652.384 z"
      fill="url(#Gradient_15)" />
    <path
      d="M313.742,387.954 C315.252,386.722 322.021,384.33 323.124,383.952 L321.427,384.556 L322.642,384.114 C324.072,383.628 325.893,384.129 326.852,384.649 L347.711,395.261 C351.283,397.221 354.962,400.756 354.962,404.572 L354.962,492.938 C354.962,494.73 351.931,496.631 350.057,497.446 C348.241,498.354 342.907,500.667 341.268,500.864 C339.276,501.114 337.627,498.079 337.627,498.079 L336.395,488.288 L327.537,482.881 C323.976,480.922 322.83,477.391 322.83,473.58 L322.83,391.775 L313.217,389.3 C313.217,389.3 312.103,389.3 313.742,387.954 z"
      fill="url(#Gradient_16)" />
    <path
      d="M343.057,497.323 L343.057,408.117 C343.057,404.301 340.872,400.766 337.294,398.806 L317.249,387.831 C314.668,386.417 311.39,388.121 311.39,390.876 L311.39,480.028 C311.39,483.838 313.57,487.369 317.131,489.328 L337.198,500.367 C339.779,501.787 343.057,500.083 343.057,497.323"
      fill="#3F4240" />
    <path
      d="M315.703,414.869 C317.855,422.916 324.357,428.606 330.478,427.884 C336.819,427.135 340.776,419.81 339.063,411.161 C337.253,402.066 330.023,395.507 323.227,396.897 C316.666,398.233 313.443,406.432 315.703,414.869"
      fill="#501518" />
    <path
      d="M315.703,447.315 C317.855,455.169 324.357,460.714 330.478,460.009 C336.819,459.284 340.777,452.134 339.063,443.703 C337.253,434.833 330.023,428.43 323.227,429.786 C316.667,431.089 313.443,439.085 315.703,447.315"
      fill="#524325" />
    <path
      d="M315.703,480.005 C317.855,487.838 324.357,493.378 330.478,492.669 C336.819,491.945 340.777,484.815 339.063,476.395 C337.253,467.542 330.023,461.152 323.227,462.505 C316.667,463.81 313.443,471.791 315.703,480.005"
      fill="#1C572F" />
    <path id="redLeft"
      d="M317.657,414.435 C319.446,421.124 324.844,425.843 329.932,425.24 C335.186,424.627 338.479,418.54 337.049,411.362 C335.555,403.809 329.552,398.363 323.902,399.514 C318.461,400.627 315.778,407.431 317.657,414.435"
      fill="#D5312A" />
    <path id="yellowLeft"
      d="M317.481,446.746 C319.301,453.382 324.796,458.074 329.98,457.476 C335.336,456.861 338.683,450.819 337.231,443.691 C335.705,436.192 329.589,430.779 323.843,431.923 C318.3,433.03 315.569,439.787 317.481,446.746"
      fill="#D5BC3A" />
    <path id="greenLeft"
      d="M317.572,479.604 C319.376,486.158 324.823,490.798 329.953,490.206 C335.255,489.599 338.57,483.626 337.135,476.58 C335.619,469.17 329.562,463.821 323.875,464.952 C318.391,466.041 315.681,472.722 317.572,479.604"
      fill="#3FAB47" />
    <path
      d="M476.83,486.425 L475.776,486.781 C477.125,485.792 477.188,484.132 475.931,483.078 L409.592,416.937 C408.331,415.883 406.215,415.827 404.866,416.816 L405.924,416.463 C404.58,417.452 404.512,419.109 405.769,420.167 L472.113,486.304 C473.37,487.361 475.482,487.414 476.83,486.425 z"
      fill="url(#Gradient_17)" />
    <path
      d="M476.465,452.751 L476.465,452.751 C477.226,451.552 476.768,450.023 475.444,449.334 L324.711,371.168 C323.387,370.48 321.698,370.897 320.94,372.096 C320.18,373.297 320.641,374.827 321.965,375.513 L472.694,453.681 C474.018,454.367 475.707,453.953 476.465,452.751 z"
      fill="url(#Gradient_18)" />
    <path
      d="M487.177,650.855 L466.462,650.62 L464.816,691.696 C464.816,695.211 470.535,698.295 477.056,698.295 C483.573,698.295 488.506,695.446 488.506,691.931 L487.177,650.855 z"
      fill="url(#Gradient_19)" />
    <path
      d="M475.097,654.874 L475.097,654.874 C472.374,654.874 469.165,652.935 469.165,650.7 L470.164,449.688 C470.164,447.456 472.374,445.645 475.097,445.645 C477.825,445.645 480.034,447.456 480.034,449.688 L481.137,650.437 C481.137,652.672 478.742,654.874 475.097,654.874 z"
      fill="url(#Gradient_20)" />
    <path d="M477.114,330.197 L477.114,319.062 L520.093,291.013 L519,303.043 L477.114,330.197" fill="#64442A" />
    <path d="M436.127,302.566 L436.29,291.013 L478.574,318.578 L477.833,330.197 L436.127,302.566" fill="#9E7147" />
    <path d="M436.29,291.013 L479.075,264.108 L520.453,291.013 L478.37,319.062 L436.29,291.013" fill="#C6A37B" />
    <path
      d="M501.616,290.999 C501.616,299.431 491.794,306.271 479.676,306.271 C467.558,306.271 457.734,299.431 457.734,290.999 C457.734,282.568 467.558,275.734 479.676,275.734 C491.794,275.734 501.616,282.568 501.616,290.999"
      fill="#80A13E" />
    <path
      d="M479.676,282.139 C490.215,282.139 499.008,287.311 501.125,294.203 C501.444,293.17 501.616,292.099 501.616,291 C501.616,282.568 491.794,275.734 479.676,275.734 C467.558,275.734 457.734,282.568 457.734,291 C457.734,292.099 457.909,293.17 458.225,294.203 C460.341,287.311 469.137,282.139 479.676,282.139"
      fill="#4E5E2D" />
    <path
      d="M478.574,298.268 C478.574,298.268 483.219,214.026 493.251,201.045 C499.965,192.36 512.1,190.805 515.031,167.434 C517.96,144.062 517.96,144.062 517.96,144.062 L527.952,137.625 L523.139,173.089 C523.139,173.089 521.265,188.719 515.031,195.156 C508.505,201.892 502.738,203.634 499.74,210.753 C496.744,217.869 489.649,290.243 489.649,290.243 L478.574,298.268"
      fill="#5D6447" />
    <path
      d="M515.031,167.434 C517.96,144.062 517.96,144.062 517.96,144.062 L509.475,138.999 C509.475,138.999 507.064,167.581 503.313,176.809 C499.56,186.04 496.557,186.093 490.898,190.408 C482.178,197.055 481.342,201.745 479.199,208.965 C476.546,217.906 469.435,292.922 469.435,292.922 L478.574,298.268 C478.574,298.268 484.199,211.743 493.251,201.045 C500.308,192.704 512.1,190.805 515.031,167.434"
      fill="#979B82" />
    <path
      d="M510.053,183.984 L522.257,178.178 C522.257,178.178 530.675,185.481 536.13,185.27 C541.583,185.063 548.756,184.818 551.378,176.732 C554,168.644 557.567,159.778 557.567,159.778 C557.567,159.778 557.193,185.481 554.746,187.569 C552.301,189.662 549.106,196.555 543.653,196.765 C538.198,196.975 526.164,199.689 522.027,196.975 C517.888,194.256 510.053,188.615 510.053,188.615 L510.053,183.984"
      fill="#CDD7B9" />
    <path
      d="M535.377,205.256 C535.377,205.256 555.716,206.973 564.213,195.721 C569.723,188.421 571.791,182.359 573.39,173.547 C575.701,160.811 576.4,141.196 576.4,141.196 L567.722,146.685 L557.567,184.016 L543.464,198.174 L535.377,205.256"
      fill="#5D6447" />
    <path
      d="M510.053,183.984 L524.345,191.263 C524.345,191.263 538.714,196.278 547.826,183.459 C556.941,170.644 557.943,140.554 557.943,140.554 L567.722,146.685 C567.722,146.685 566.624,181.385 557.943,192.227 C548.792,203.66 540.895,206.441 529.862,204.843 C518.83,203.242 501.276,193.212 501.276,193.212 L503.263,185.689 L510.053,183.984"
      fill="#979B82" />
    <path d="M538.009,118.822 L586.527,145.987 L638.055,112.973 L588.032,86.642 L538.009,118.822" fill="#8BB542" />
    <path
      d="M538.009,132.615 L538.009,118.822 L553.746,127.635 L557.567,127.315 L564.242,133.51 L572.134,135.321 L586.527,145.987 L586.527,156.435 L538.009,132.615"
      fill="#698239" />
    <path
      d="M638.055,112.973 L638.055,123.837 L630.824,128.412 L629.403,131.044 L623.607,132.974 L616.616,138.999 L586.527,156.435 L586.527,145.987 L600.591,136.975 L603.182,131.044 L617.184,126.343 L638.055,112.973"
      fill="#4E5E2D" />
    <path
      d="M543.529,135.321 L516.86,152.834 L436.462,109.463 L459.78,95.444 L432.325,79.954 L487.926,42.341 L512.812,56.552 L538.009,39.416 L621.45,84.553 L604.754,95.444 L588.032,86.641 L538.009,118.822 L538.009,132.615 L543.529,135.321"
      fill="#8EC24A" />
    <path
      d="M432.325,79.954 L432.325,90.911 L450.92,100.773 L459.78,95.444 L441.323,85.03 L440.467,84.551 L439.096,81.416 L433.449,80.591 L432.325,79.954"
      fill="#698239" />
    <path
      d="M436.462,109.463 L436.462,120.59 L515.398,164.484 L516.86,152.834 L494.759,140.914 L488.99,135.321 L470.151,127.637 L461.159,120.215 L453.808,118.822 L436.462,109.463"
      fill="#698239" />
    <path d="M555.489,141.196 L515.398,164.484 L516.86,152.834 L543.529,135.321 L555.489,141.196" fill="#4E5E2D" />
    <path d="M621.45,84.554 L621.45,96.126 L614.876,100.773 L604.754,95.444 L621.45,84.554" fill="#4E5E2D" />
    <path
      d="M446.052,79.954 L511.683,116.316 L496.262,126.346 L517.96,137.627 L538.009,124.673 L538.009,118.822 L588.032,86.642 L608.047,72.015 L523.719,25.208 L446.052,79.954"
      fill="#8BB542" />
    <path
      d="M446.052,79.954 L446.052,90.362 L501.276,123.083 L511.683,116.316 L499.677,109.663 L496.262,105.655 L493.704,106.352 L488.391,103.412 L469.432,92.906 L461.108,88.295 L459.78,84.553 L455.984,85.459 L446.052,79.954"
      fill="#698239" />
    <path
      d="M496.262,135.321 C496.262,133.867 496.262,126.346 496.262,126.346 L503.371,130.042 L507.1,131.978 L511.815,130.341 L513.54,135.329 L517.96,137.627 L517.718,145.987 L496.262,135.321"
      fill="#698239" />
    <path d="M538.009,132.615 L517.718,145.987 L517.96,137.627 L538.009,124.673 L538.009,132.615" fill="#4E5E2D" />
    <path d="M608.047,72.015 L608.047,81.416 L596.143,90.911 L588.032,86.642 L608.047,72.015" fill="#4E5E2D" />
    <path
      d="M451.881,52.791 C453.386,54.046 539.514,100.773 539.514,100.773 L604.754,56.552 L539.89,21.445 L507.11,43.595 L483.633,30.713 L451.881,52.791"
      fill="#8EC24A" />
    <path
      d="M451.881,64.494 L451.881,52.792 L465.986,60.512 L470.875,59.687 L473.682,64.726 L480.467,65.953 L501.29,79.842 L505.185,81.976 L516.853,88.362 L520.896,86.642 L523.715,92.123 L532.604,96.988 L539.514,100.773 L539.514,111.394 L451.881,64.494"
      fill="#698239" />
    <path
      d="M604.754,56.552 L604.754,68.254 L539.514,111.394 L539.514,100.773 L543.934,97.777 L545.156,90.362 L554.062,90.908 L557.567,88.535 L581.942,72.015 L586.568,68.877 L589.976,61.985 L597.83,61.245 L604.754,56.552"
      fill="#4E5E2D" />
    <path d="M480.467,42.341 L538.009,74.106 L588.032,39.416 L530.718,9.252 L480.467,42.341" fill="#8BB542" />
    <path
      d="M480.467,42.341 L480.467,52.791 L538.009,84.554 L538.009,74.106 L532.367,69.298 L528.321,68.758 L526.888,65.953 L523.156,65.905 L513.226,60.424 L509.238,54.509 L502.755,54.645 L492.688,47.148 L480.467,42.341"
      fill="#698239" />
    <path
      d="M588.032,39.417 L588.032,49.865 L538.009,84.554 L538.009,74.106 L547.828,67.296 L551.541,61.985 L557.567,60.542 L570.821,51.353 L576.4,44.964 L588.032,39.417"
      fill="#4E5E2D" />
    <path
      d="M499.375,31.642 L517.677,18.688 C517.677,18.688 519.657,17.207 520.326,14.619 C520.992,12.025 523.655,8.696 523.655,8.696 L525.654,12.398 L528.649,8.696 L533.314,8.696 L545.635,14.989 C545.635,14.989 546.633,17.948 548.631,20.169 C550.63,22.387 552.112,18.688 552.112,18.688 L568.247,28.678 L554.293,44.964 L541.638,53.473 L528.649,53.473 L503.673,37.93 L499.375,31.642"
      fill="#8EC24A" />
    <path
      d="M499.375,41.691 L535.976,61.245 L535.976,51.529 L533.812,48.613 L529.234,47.867 L526.888,44.964 L523.887,44.961 L517.85,41.68 L514.305,38.735 L510.343,37.6 L507.11,33.147 L502.786,33.493 L499.375,31.642 L499.375,41.691"
      fill="#698239" />
    <path
      d="M568.247,38.745 L535.976,61.245 L535.976,51.529 L545.635,44.964 L549.298,46.442 L553.626,38.745 L568.247,28.678 L568.247,38.745"
      fill="#4E5E2D" />
    <path
      d="M552.092,100.735 L570.392,87.784 C570.392,87.784 572.374,86.303 573.04,83.712 C573.706,81.123 576.372,77.794 576.372,77.794 L578.368,81.493 L581.367,77.794 L586.028,77.794 L598.35,84.085 C598.35,84.085 599.35,87.044 601.349,89.265 C603.347,91.483 604.829,87.784 604.829,87.784 L620.964,97.777 L607.01,114.06 L594.355,122.569 L581.367,122.569 L556.39,107.026 L552.092,100.735"
      fill="#8EC24A" />
    <path
      d="M552.092,110.784 L588.694,130.34 L588.694,120.628 L578.287,114.973 L575.432,111.394 L572.141,111.634 L568.247,108.004 L564.395,107.423 L561.33,103.149 L552.092,100.736 L552.092,110.784"
      fill="#698239" />
    <path
      d="M620.964,107.841 L588.694,130.34 L588.694,120.628 L598.35,114.06 L602.015,115.541 L606.343,107.841 L620.964,97.777 L620.964,107.841"
      fill="#4E5E2D" />
    <path
      d="M507.11,118.065 L515.134,112.385 C515.134,112.385 516.004,111.735 516.297,110.6 C516.589,109.463 517.756,108.004 517.756,108.004 L518.633,109.628 L519.947,108.004 L521.989,108.004 L527.394,110.763 C527.394,110.763 527.83,112.06 528.707,113.035 C529.582,114.007 530.234,112.385 530.234,112.385 L537.307,116.763 L531.19,123.903 L525.642,127.637 L519.947,127.637 L508.996,120.822 L507.11,118.065"
      fill="#8EC24A" />
    <path d="M507.11,122.471 L523.158,131.044 L523.158,126.785 L507.11,118.066 L507.11,122.471" fill="#698239" />
    <path
      d="M537.307,121.179 L523.158,131.044 L523.158,126.785 L527.394,123.903 L528.999,124.553 L530.898,121.179 L537.307,116.763 L537.307,121.179"
      fill="#4E5E2D" />
    <path
      d="M567.722,94.41 L577.146,87.742 C577.146,87.742 578.164,86.98 578.507,85.646 C578.852,84.314 580.223,82.596 580.223,82.596 L581.254,84.503 L582.795,82.596 L585.197,82.596 L591.541,85.837 C591.541,85.837 592.056,87.361 593.084,88.503 C594.113,89.648 594.875,87.742 594.875,87.742 L603.182,92.887 L595.999,101.271 L589.484,105.655 L582.795,105.655 L569.934,97.652 L567.722,94.41"
      fill="#8BB542" />
    <path d="M567.722,99.585 L586.568,109.655 L586.568,104.653 L567.722,94.41 L567.722,99.585" fill="#698239" />
    <path
      d="M603.182,98.07 L586.568,109.655 L586.568,104.653 L591.541,101.271 L593.427,102.032 L595.656,98.07 L603.182,92.887 L603.182,98.07"
      fill="#4E5E2D" />
    <path
      d="M516.081,23.49 L525.503,16.821 C525.503,16.821 526.524,16.06 526.866,14.728 C527.209,13.394 528.58,11.676 528.58,11.676 L529.611,13.583 L531.154,11.676 L533.553,11.676 L539.9,14.917 C539.9,14.917 540.413,16.443 541.441,17.583 C542.469,18.728 543.234,16.821 543.234,16.821 L551.541,21.967 L544.356,30.351 L537.841,34.734 L531.154,34.734 L518.293,26.731 L516.081,23.49"
      fill="#8BB542" />
    <path
      d="M516.081,28.665 L534.927,38.735 L534.927,33.733 L531.07,31.637 L528.695,30.345 L525.503,25.208 L519.985,25.613 L516.081,23.49 L516.081,28.665"
      fill="#698239" />
    <path
      d="M551.541,27.149 L534.927,38.735 L534.927,33.733 L539.9,30.351 L541.784,31.112 L544.013,27.149 L551.541,21.967 L551.541,27.149"
      fill="#4E5E2D" />
    <path d="M434.737,207.346 L479.427,232.157 L511.814,210.904 L466.331,186.943 L434.737,207.346" fill="#8BB542" />
    <path
      d="M479.427,232.157 L479.427,241.83 L511,220.724 L511.815,210.904 L505.039,212.436 L502.556,216.979 L494.759,222.095 L489.242,222.186 L486.982,227.198 L479.427,232.157"
      fill="#4E5E2D" />
    <path
      d="M434.737,207.346 L434.737,217.035 L479.427,241.83 L479.427,232.157 L475.002,229.702 L473.277,224.588 L463.881,223.526 L448.873,215.192 L446.052,209.549 L442.368,211.584 L434.737,207.346"
      fill="#698239" />
    <path
      d="M443.684,201.567 L474.259,217.946 L474.259,208.257 L470.403,206.095 L468.136,204.824 L464.514,202.795 L456.284,198.185 L453.769,195.055 L448.873,194.03 L443.684,191.122 L443.684,201.567"
      fill="#698239" />
    <path d="M494.759,194.256 L474.259,208.257 L474.259,217.946 L494.759,204.536 L494.759,194.256" fill="#4E5E2D" />
    <path
      d="M443.684,191.122 L465.717,178.61 L494.759,194.256 L490.989,196.832 L486.922,199.609 L484.508,204.843 L479.427,207.346 L474.259,208.257 L448.873,199.897 L443.684,191.122"
      fill="#8BB542" />
    <path
      d="M451.881,185.483 L459.908,179.803 C459.908,179.803 460.775,179.156 461.068,178.018 C461.36,176.884 462.527,175.424 462.527,175.424 L463.404,177.046 L464.718,175.424 L466.762,175.424 L472.165,178.181 C472.165,178.181 472.603,179.48 473.478,180.455 C474.355,181.427 475.005,179.803 475.005,179.803 L482.078,184.186 L475.961,191.327 L470.413,195.055 L464.718,195.055 L453.767,188.24 L451.881,185.483"
      fill="#8EC24A" />
    <path d="M451.881,189.891 L467.93,198.462 L467.93,194.206 L451.881,185.483 L451.881,189.891" fill="#698239" />
    <path
      d="M482.078,188.597 L467.93,198.462 L467.93,194.206 L472.165,191.327 L473.77,191.974 L475.669,188.597 L482.078,184.186 L482.078,188.597"
      fill="#4E5E2D" />
    <path
      d="M446.426,223.518 L446.426,229.571 L454.414,234.072 L454.891,237.271 L467.93,241.692 L479.427,248.169 L479.427,241.83 L446.426,223.518"
      fill="#4E5E2D" />
    <path
      d="M479.427,241.83 L502.556,226.367 L502.556,232.157 L499.694,234.139 L499.521,237.271 L488.583,241.83 L479.427,248.169 L479.427,241.83"
      fill="#3D4825" />
    <path
      d="M448.873,127.315 L448.873,133.369 L455.282,136.975 L458.973,141.196 L469.435,145.987 L482.078,152.059 L515.079,170.636 L515.079,164.297 L448.873,127.315"
      fill="#4E5E2D" />
    <path
      d="M515.079,164.342 L552.092,143.092 L552.092,148.882 L546.791,152.003 L545.156,155.322 L535.377,158.723 L515.079,170.681 L515.079,164.342"
      fill="#3D4825" />
    <path
      d="M527.18,366.581 C527.18,368.914 524.241,370.836 520.614,370.836 C516.986,370.836 514.045,368.914 514.045,366.581 C514.045,364.25 516.986,362.326 520.614,362.326 C524.241,362.326 527.18,364.25 527.18,366.581 z"
      fill="url(#Gradient_21)" />
    <path
      d="M520.74,367.762 L520.74,367.762 C519.514,367.762 518.074,366.742 518.074,365.565 L518.521,230.304 C518.521,229.128 519.514,228.175 520.74,228.175 C521.966,228.175 522.961,229.128 522.961,230.304 L523.458,365.429 C523.458,366.605 522.381,367.762 520.74,367.762 z"
      fill="url(#Gradient_22)" />
    <path
      d="M527.121,251.761 C527.121,253.446 524.412,254.837 521.072,254.837 C517.733,254.837 515.027,253.446 515.027,251.761 C515.027,250.075 517.733,248.687 521.072,248.687 C524.412,248.687 527.121,250.075 527.121,251.761 z"
      fill="url(#Gradient_23)" />
    <path
      d="M529.437,247.428 C529.437,249.761 525.692,251.683 521.072,251.683 C516.454,251.683 512.709,249.761 512.709,247.428 C512.709,245.097 516.454,243.173 521.072,243.173 C525.692,243.173 529.437,245.097 529.437,247.428 z"
      fill="url(#Gradient_24)" />
    <path
      d="M536.285,233.714 C536.285,241.94 529.338,248.608 520.765,248.608 C512.194,248.608 505.247,241.94 505.247,233.714 C505.247,225.488 512.194,218.82 520.765,218.82 C529.338,218.82 536.285,225.488 536.285,233.714 z"
      fill="url(#Gradient_25)" />
  </g>
  <g id="lightHalo">
    <g>
      <path
        d="M536.881,233.714 C536.881,242.068 529.934,248.84 521.361,248.84 C512.79,248.84 505.843,242.068 505.843,233.714 C505.843,225.361 512.79,218.589 521.361,218.589 C529.934,218.589 536.881,225.361 536.881,233.714 z"
        fill="url(#Gradient_26)" />
      <g>
        <path
          d="M521.361,218.589 C529.934,218.589 536.881,225.361 536.881,233.714 C536.881,242.068 529.934,248.84 521.361,248.84 C512.79,248.84 505.843,242.068 505.843,233.714 C505.843,225.361 512.79,218.589 521.361,218.589 z"
          fill="rgba(0,0,0,1)" clip-path="url(#Clip_1)" filter="url(#Shadow_2)" />
        <path
          d="M521.361,231.089 C523.101,231.089 524.381,232.337 524.381,233.714 C524.381,235.092 523.101,236.34 521.361,236.34 C519.623,236.34 518.343,235.092 518.343,233.714 C518.343,232.337 519.623,231.089 521.361,231.089 z M521.361,206.089 C505.957,206.089 493.343,218.384 493.343,233.714 C493.343,249.044 505.957,261.34 521.361,261.34 C536.766,261.34 549.381,249.045 549.381,233.714 C549.381,218.384 536.766,206.089 521.361,206.089 z"
          fill="rgba(0,0,0,1)" clip-path="url(#Clip_1)" filter="url(#Shadow_2)" />
      </g>
      <g>
        <path
          d="M499.843,212.589 L542.881,212.589 L542.881,254.84 L499.843,254.84 z M521.361,218.589 C512.79,218.589 505.843,225.361 505.843,233.714 C505.843,242.068 512.79,248.84 521.361,248.84 C529.934,248.84 536.881,242.068 536.881,233.714 C536.881,225.361 529.934,218.589 521.361,218.589 z"
          fill="rgba(0,0,0,1)" clip-path="url(#Clip_3)" filter="url(#Shadow_4)" />
        <path
          d="M499.843,213.839 L542.881,213.839 L541.631,212.589 L541.631,254.84 L542.881,253.59 L499.843,253.59 L501.093,254.84 L501.093,212.589 L499.843,213.839 z M499.843,211.339 C499.152,211.339 498.593,211.898 498.593,212.589 L498.593,254.84 C498.593,255.53 499.152,256.09 499.843,256.09 L542.881,256.09 C543.572,256.09 544.131,255.53 544.131,254.84 L544.131,212.589 C544.131,211.898 543.572,211.339 542.881,211.339 L499.843,211.339 z M521.361,217.339 C512.107,217.339 504.593,224.663 504.593,233.714 C504.593,242.766 512.107,250.09 521.361,250.09 C530.617,250.09 538.131,242.766 538.131,233.714 C538.131,224.663 530.617,217.339 521.361,217.339 z M521.361,219.839 C529.25,219.839 535.631,226.058 535.631,233.714 C535.631,241.371 529.25,247.59 521.361,247.59 C513.474,247.59 507.093,241.37 507.093,233.714 C507.093,226.058 513.474,219.839 521.361,219.839 z"
          fill="rgba(0,0,0,1)" clip-path="url(#Clip_3)" filter="url(#Shadow_4)" />
      </g>
    </g>
  </g>
</svg>
